<svg id="Capa_1" data-name="Capa 1" xmlns="http://www.w3.org/2000/svg" viewBox="0 0 67.7 50"><defs><style>.cls-1{fill:#fff;fill-rule:evenodd;}</style></defs><path class="cls-1" d="M109.76,147.09h26.53v0l3.08,0A14.62,14.62,0,0,0,143,118.32l-1.61-.41-.46-1.59a18.65,18.65,0,0,0-35.79,0l-.47,1.59-1.6.41a14.62,14.62,0,0,0,3.62,28.77l3.08,0Zm34-31.59a17.52,17.52,0,0,1-4.36,34.5H106.69a17.53,17.53,0,0,1-4.36-34.5,21.56,21.56,0,0,1,41.38,0Z" transform="translate(-89.17 -100)"/><path class="cls-1" d="M111.54,123.15V119l5.65-5.8h17.32v28h-23ZM117.7,122h10.64V125H117.7Zm0,5.11h10.64v2.92H117.7Zm0,5.12h10.64v2.92H117.7Zm13.89-16.17H118.41v4.06h-4V138.3h17.14V116.1Z" transform="translate(-89.17 -100)"/></svg>