<svg id="Capa_1" data-name="Capa 1" xmlns="http://www.w3.org/2000/svg" viewBox="0 0 205.78 120"><defs><style>.cls-1{fill:#3e3e91;fill-rule:evenodd;}.cls-2{fill:#1b1b1b;}</style></defs><path class="cls-1" d="M105,112.31h40v0l4.65,0A22,22,0,0,0,155.08,69l-2.42-.62L152,66A28.1,28.1,0,0,0,98,66l-.7,2.4L94.92,69a22,22,0,0,0,5.45,43.34l4.65,0Zm51.15-47.59a26.41,26.41,0,0,1-6.57,52H100.4a26.41,26.41,0,0,1-6.57-52,32.48,32.48,0,0,1,62.34,0Z" transform="translate(-22.11 -41.37)"/><path class="cls-1" d="M107.7,76.25V70l8.5-8.73h26.1v42.22H107.7ZM117,74.57h16V79H117Zm0,7.71h16v4.39H117ZM117,90h16v4.39H117Zm20.92-24.37H118.06v6.12h-6V99.06h25.82V65.62Z" transform="translate(-22.11 -41.37)"/><path class="cls-2" d="M216.74,161.37a14,14,0,0,1-5.57-1.1,13.6,13.6,0,0,1-7.37-7.5,14.19,14.19,0,0,1-1.07-5.53v-.08a14.5,14.5,0,0,1,1.05-5.52,14,14,0,0,1,2.94-4.51,13.66,13.66,0,0,1,4.49-3.06,14.25,14.25,0,0,1,5.73-1.12,17.21,17.21,0,0,1,3.43.31,13.79,13.79,0,0,1,2.85.89,13.37,13.37,0,0,1,2.4,1.35,18.89,18.89,0,0,1,2.08,1.73l-3.11,3.57a15,15,0,0,0-3.49-2.47,9.08,9.08,0,0,0-4.2-1,8.59,8.59,0,0,0-3.63.77,9.09,9.09,0,0,0-2.89,2.08,9.28,9.28,0,0,0-1.88,3.08,10.5,10.5,0,0,0-.67,3.77v.08a10.65,10.65,0,0,0,.67,3.79,9.46,9.46,0,0,0,1.88,3.12,9,9,0,0,0,2.89,2.1,8.59,8.59,0,0,0,3.63.76,9.12,9.12,0,0,0,4.32-1,17.05,17.05,0,0,0,3.57-2.61l3.1,3.14a16.75,16.75,0,0,1-2.22,2,15,15,0,0,1-2.49,1.54,13,13,0,0,1-2.92,1,17.33,17.33,0,0,1-3.52.33m-33.05,0a14.61,14.61,0,0,1-5.81-1.12,13.84,13.84,0,0,1-4.52-3,14.22,14.22,0,0,1-4-10v-.08a14.19,14.19,0,0,1,1.06-5.48,13.91,13.91,0,0,1,3-4.51A14.36,14.36,0,0,1,183.77,133a14.65,14.65,0,0,1,5.81,1.12,13.69,13.69,0,0,1,4.51,3A14,14,0,0,1,197,141.6a14.38,14.38,0,0,1,1.06,5.48v.08a14.38,14.38,0,0,1-1.06,5.48,13.88,13.88,0,0,1-3,4.51,14.29,14.29,0,0,1-4.55,3.08A14.44,14.44,0,0,1,183.69,161.37Zm.08-4.44a8.91,8.91,0,0,0,6.65-2.84,9.94,9.94,0,0,0,1.89-3.08,10.51,10.51,0,0,0,.68-3.77v-.08a10.61,10.61,0,0,0-.68-3.79,9.68,9.68,0,0,0-1.91-3.1,9.33,9.33,0,0,0-3-2.1,9.4,9.4,0,0,0-7.5,0,8.85,8.85,0,0,0-2.91,2.08,9.65,9.65,0,0,0-1.89,3.08,10.3,10.3,0,0,0-.69,3.77v.08a10.45,10.45,0,0,0,.69,3.79,9.14,9.14,0,0,0,4.86,5.2A9,9,0,0,0,183.77,156.93Zm-43.89-23.51h10.24a16.3,16.3,0,0,1,5.91,1,13.9,13.9,0,0,1,4.63,2.88,13,13,0,0,1,3,4.34,13.8,13.8,0,0,1,1.06,5.4v.08a13.93,13.93,0,0,1-1.06,5.42,12.82,12.82,0,0,1-3,4.35,14.13,14.13,0,0,1-4.63,2.91,15.89,15.89,0,0,1-5.91,1.06H139.88Zm10.21,23.12a10.72,10.72,0,0,0,3.92-.69,8.47,8.47,0,0,0,3-1.93,8.68,8.68,0,0,0,1.93-3,9.85,9.85,0,0,0,.68-3.72v-.08a10,10,0,0,0-.68-3.74,8.57,8.57,0,0,0-1.93-3,8.82,8.82,0,0,0-3-2,10.52,10.52,0,0,0-3.92-.7h-5.42v18.76Zm-28.66,4.79q-5.54,0-8.72-3.06t-3.18-9.15v-15.7h6V149a7.26,7.26,0,0,0,1.57,5.08,5.63,5.63,0,0,0,4.36,1.71,5.71,5.71,0,0,0,4.35-1.65,6.92,6.92,0,0,0,1.57-5V133.42h6v15.51a16,16,0,0,1-.84,5.45,10.29,10.29,0,0,1-2.42,3.87,9.9,9.9,0,0,1-3.81,2.32A15.31,15.31,0,0,1,121.43,161.33Zm-31.49,0a14.83,14.83,0,0,1-5.84-1.12,14.51,14.51,0,0,1-4.62-3,13.57,13.57,0,0,1-3-4.48,14.06,14.06,0,0,1-1.08-5.51v-.08a14,14,0,0,1,1.1-5.52,14.24,14.24,0,0,1,3-4.51,14.06,14.06,0,0,1,4.63-3.06A15.08,15.08,0,0,1,90,133a14.91,14.91,0,0,1,5.85,1.12,14.35,14.35,0,0,1,4.61,3,13.45,13.45,0,0,1,3,4.48,14.06,14.06,0,0,1,1.08,5.51v.08a13.9,13.9,0,0,1-1.1,5.51,14.45,14.45,0,0,1-3,4.52,14,14,0,0,1-4.64,3.06A15,15,0,0,1,89.94,161.37ZM90,155.8a8.34,8.34,0,0,0,3.34-.67A7.65,7.65,0,0,0,96,153.28a8.66,8.66,0,0,0,1.69-2.73,9.09,9.09,0,0,0,.61-3.31v-.08a9.29,9.29,0,0,0-.61-3.34,8.22,8.22,0,0,0-4.38-4.61,8,8,0,0,0-3.34-.69,8.28,8.28,0,0,0-3.35.67A7.53,7.53,0,0,0,84,141a8.54,8.54,0,0,0-1.69,2.72,8.94,8.94,0,0,0-.61,3.32v.08a9.08,9.08,0,0,0,.61,3.34A8.13,8.13,0,0,0,84,153.24a8.24,8.24,0,0,0,2.63,1.87A7.93,7.93,0,0,0,90,155.8ZM52.3,133.42h6v22H72v5.46H52.3Zm-16.1,28a14.25,14.25,0,0,1-5.61-1.1,13.48,13.48,0,0,1-7.42-7.5,14.37,14.37,0,0,1-1.06-5.53v-.08a14.32,14.32,0,0,1,1.06-5.52,14.13,14.13,0,0,1,2.94-4.51,13.49,13.49,0,0,1,4.52-3.06A14.61,14.61,0,0,1,36.44,133a18.12,18.12,0,0,1,3.51.31,14.62,14.62,0,0,1,2.89.87,12.32,12.32,0,0,1,2.39,1.33,16.08,16.08,0,0,1,2,1.73l-3.85,4.43a14.73,14.73,0,0,0-3.27-2.27,8.39,8.39,0,0,0-3.75-.83,7.74,7.74,0,0,0-3.2.67A7.4,7.4,0,0,0,30.67,141,8.44,8.44,0,0,0,29,143.76a9.14,9.14,0,0,0-.59,3.32v.08A9.28,9.28,0,0,0,29,150.5a8.56,8.56,0,0,0,1.63,2.74,7.54,7.54,0,0,0,5.75,2.56,8.33,8.33,0,0,0,4-.87,15.22,15.22,0,0,0,3.24-2.35l3.85,3.88a19.85,19.85,0,0,1-2.2,2,13.22,13.22,0,0,1-2.49,1.56,13.44,13.44,0,0,1-3,1A18,18,0,0,1,36.2,161.37Z" transform="translate(-22.11 -41.37)"/></svg>